<?xml version="1.0" encoding="utf-8"?>
<!-- Generator: Adobe Illustrator 23.1.0, SVG Export Plug-In . SVG Version: 6.00 Build 0)  -->
<svg version="1.1" id="Layer_1" xmlns="http://www.w3.org/2000/svg" xmlns:xlink="http://www.w3.org/1999/xlink" x="0px" y="0px"
	 viewBox="0 0 48 48" style="enable-background:new 0 0 48 48;" xml:space="preserve">
<style type="text/css">
	.st0{fill:#FFFFFF;stroke:#000000;stroke-linecap:round;stroke-linejoin:round;stroke-miterlimit:10;}
	.st1{fill:#E58973;stroke:#000000;stroke-linecap:round;stroke-linejoin:round;stroke-miterlimit:10;}
	.st2{fill:#80BFC3;stroke:#000000;stroke-linecap:round;stroke-linejoin:round;stroke-miterlimit:10;}
	.st3{fill:none;stroke:#000000;stroke-linecap:round;stroke-linejoin:round;stroke-miterlimit:10;}
</style>
<g>
	<rect x="3.94" y="1.5" class="st0" width="19.49" height="25.64"/>
	<line class="st0" x1="6.73" y1="6.14" x2="20.64" y2="6.14"/>
	<line class="st0" x1="6.73" y1="10.13" x2="20.64" y2="10.13"/>
	<line class="st0" x1="6.73" y1="14.13" x2="20.64" y2="14.13"/>
	<line class="st0" x1="6.73" y1="18.13" x2="20.64" y2="18.13"/>
	<line class="st0" x1="6.73" y1="22.13" x2="20.64" y2="22.13"/>
</g>
<g>
	<path class="st1" d="M28.7,24.88h-8.16c-5.15,0-9.32,4.17-9.32,9.32v1.22c0,0.78,0.63,1.41,1.41,1.41h23.98
		c0.78,0,1.41-0.63,1.41-1.41V34.2C38.02,29.05,33.85,24.88,28.7,24.88z"/>
	<path class="st0" d="M24.62,29.69L24.62,29.69c-2.21,0-3.99-1.79-3.99-3.99V21.7h7.99v3.99C28.61,27.9,26.83,29.69,24.62,29.69z"/>
	<path class="st0" d="M27.97,8.07c-2.17,0-3.34,0-3.34,0s-1.18,0-3.34,0s-4.17,1.49-3.68,6.67c0.38,4.03,0.59,5.19,1.95,6.99
		c1.36,1.8,3.16,3.15,5.07,3.15s3.71-1.35,5.07-3.15c1.36-1.8,1.54-2.85,1.95-6.99C32.15,9.57,30.14,8.07,27.97,8.07z"/>
	<path class="st2" d="M17.88,17.87c0.16-5.09,2.05-7.53,2.05-7.53s4.41,1.97,10.53,1.27c0,0,1.18,3.14,0.82,6.26
		c0,0,1.83-3.98,1.67-7.22s-1.76-5.05-3.71-6.07c-2.33-1.22-6.22-1.73-8.35-0.93c-2.7,1.01-2.15,3.61-2.15,3.61s-2,0.47-2.15,3.58
		S17.88,17.87,17.88,17.87z"/>
</g>
<path class="st0" d="M40.87,43.97h-5.7c-1.4,0-2.53,1.13-2.53,2.53h10.77C43.41,45.1,42.27,43.97,40.87,43.97z"/>
<line class="st0" x1="38.02" y1="41.94" x2="38.02" y2="43.97"/>
<path class="st2" d="M39.68,27.16h-3.31c-1.37,0-2.49,1.11-2.49,2.49v6.97c0,1.37,1.11,2.49,2.49,2.49h3.31
	c1.37,0,2.49-1.11,2.49-2.49v-6.97C42.16,28.27,41.05,27.16,39.68,27.16z"/>
<path class="st3" d="M39.32,41.94h-2.59c-2.62,0-4.74-2.12-4.74-4.74v-4.07h12.07v4.07C44.06,39.82,41.94,41.94,39.32,41.94z"/>
</svg>
